<svg xmlns="http://www.w3.org/2000/svg" viewBox="0 0 1179.65 887.86"><defs><style>.cls-1,.cls-2{fill:#4f3012;}.cls-1{stroke:#4f3012;stroke-miterlimit:10;}</style></defs><g id="Layer_2" data-name="Layer 2"><g id="Layer_1-2" data-name="Layer 1"><path class="cls-1" d="M1125.93,883.35a584.42,584.42,0,0,0-57.51-44.69c-1-.71-2-1.52-3.29-2.5,4.39-3.12,8.6-6,12.66-9,4.22-3.16,8.38-6.41,12.43-9.79s7.73-6.7,11.47-10.19,7.29-7.13,11-10.79c20.18,10.48,39.73,21.63,58.67,33.87l-.09.09c-.15-.55-.12-1.32-.48-1.62-1.59-1.34-3.27-2.56-5-3.78a515.4,515.4,0,0,0-45.16-29.07c-1.24-.72-2.48-1.46-3.71-2.21a5.33,5.33,0,0,1-.73-.65c.44-1.87,1.94-2.93,3.06-4.23a243.9,243.9,0,0,0,41.27-67.13A248.56,248.56,0,0,0,1177.65,655a216.38,216.38,0,0,0,.6-45c-4-41.41-18.17-78.91-43.28-112.16a19,19,0,0,1-3.71-9.1c-2.93-20.11-6.82-40-13.16-59.38a88.23,88.23,0,0,0-6.82-15.82,55.08,55.08,0,0,0-14-16.84c-.5-.39-.94-.85-1.65-1.48,0-.8,0-1.74,0-2.68,2.36-59.58-12.75-114.61-43.5-165.45-14.87-24.59-32.73-46.94-52.31-67.93-41.6-44.58-90.62-78.72-146.16-103.65a568.71,568.71,0,0,0-99.82-33.64c-23.18-5.59-46.6-9.9-70.2-13.16-15.84-2.18-31.74-3.87-47.68-5.25A816.28,816.28,0,0,0,546.77.74c-15,.35-30,1.29-45,2.64q-23.17,2.09-46.15,5.76A596.84,596.84,0,0,0,160.28,145.62c-51.31,44-91.74,96.52-120.46,157.85a421.24,421.24,0,0,0-32,96.73,388,388,0,0,0-6.31,46.06,357.46,357.46,0,0,0-.68,42.67,286.62,286.62,0,0,0,21.52,97.85A467.77,467.77,0,0,0,84.89,694.25C117.07,736,154.76,772,198.55,801.43a424,424,0,0,0,124.52,57.21,676.78,676.78,0,0,0,72.52,16.12q27,4.34,54.31,6.19a538.71,538.71,0,0,0,61.86.71c36.71-1.73,72.87-7,108-18.19A291.42,291.42,0,0,0,673,840.58a197.68,197.68,0,0,0,28.69-19.16c.74-.6,1.52-1.15,2.44-1.85,1.15.46,2.33.87,3.48,1.38a164.66,164.66,0,0,0,56.5,13.94,534.16,534.16,0,0,0,61.86.12c5.11-.26,10.23-.52,15.32-1a8.4,8.4,0,0,1,5.36,1.63,284.47,284.47,0,0,0,37.2,18.82,234.12,234.12,0,0,0,45.76,14,152.55,152.55,0,0,0,73.51-3.67,236.29,236.29,0,0,0,52.58-23l5.47-3.2c1.57,1,3.08,1.87,4.54,2.82,19.16,12.5,37.83,25.7,55.88,39.77a21.43,21.43,0,0,0,2.71,2c.47.26,1.17.07,1.77.08ZM496.57,715.46l.34.22-.28-.18c1.89-3.33,3.84-6.64,5.66-10s3.68-7.06,5.51-10.59c37-1.52,73.74-1.64,110.12,3.82,3.21,5.22,4.9,9.09,5.12,11.9-1.44-.34-2.81-.67-4.19-1-4.23-.88-8.44-1.84-12.68-2.6a259.25,259.25,0,0,0-32.91-3.3,234.41,234.41,0,0,0-30.68.21c-15.27,1.24-30.09,4.08-43.8,11.3A6.2,6.2,0,0,1,496.57,715.46ZM648.28,434.31a148.27,148.27,0,0,0-17.16,22.42C616,480.74,607,507,602.6,535a367.75,367.75,0,0,0-4.12,44.35,317,317,0,0,0,1,42.14c.63,6.51,1.51,13,2.24,19.51a28.83,28.83,0,0,1,0,3c-1.52-.17-2.79-.21-4-.47A551.53,551.53,0,0,0,530.89,634c-1.71-.14-3.49-.09-5.35-1.16.18-2.85.32-5.69.55-8.53a174.52,174.52,0,0,0-2.84-48.17,158.52,158.52,0,0,0-20.05-51c-15.25-25.43-35.31-46.48-58.91-64.27a19.9,19.9,0,0,0-2.81-1.83c-.34-.18-.89,0-1.34,0l0-.13c4.77,4.7,9.73,9.23,14.29,14.14,16.64,17.91,30.6,37.69,40.93,59.92a165.57,165.57,0,0,1,14,45.17,209.48,209.48,0,0,1,.93,51.64,15,15,0,0,1-.66,2.41c-2,0-3.94.06-5.83,0-6.07-.21-12.13-.57-18.2-.69q-23.75-.5-47.45.82c-14.84.81-29.65,2.1-44.38,4.11-7.43,1-14.82,2.37-22.23,3.55-.85.14-1.54.4-1.73,1.34l-.09-.07c15.42-1.64,30.85-3.16,46.35-3.7s31-1,46.49-1.15c21.61-.18,41.72.93,46.32,2.17,0,10.16-9.4,44.59-15.37,53.1-4.2.32-8.5.63-12.79,1-8.76.74-17.54,1.3-26.26,2.33-13.65,1.63-27.28,3.37-40.86,5.47-10.41,1.61-20.72,3.83-31.06,5.83a7.18,7.18,0,0,0-2,1.15v0a3.3,3.3,0,0,1,.87-.37c10-1.41,19.91-2.94,29.89-4.16,13-1.6,26-3.12,39.07-4.36,11.93-1.13,23.9-1.86,35.86-2.71,1.71-.13,3.47-.56,5.19.09.37,1.81-.77,3.1-1.45,4.48a206.53,206.53,0,0,1-17.41,28.66c-1.12,1.56-2.26,3.11-3.22,4.76a13.22,13.22,0,0,0-1.43,3.53,2.24,2.24,0,0,0,2.68,2.9,24.29,24.29,0,0,0,5.39-1.89,28.15,28.15,0,0,0,10-8.12,21.1,21.1,0,0,1,9.53-6.92c1.63-.66,3.24-1.37,4.88-2,19.13-7.29,39.08-9.41,59.35-9.1a312.88,312.88,0,0,1,35.39,2.42,192.15,192.15,0,0,1,29.59,5.85c6.07,1.77,6.07,1.78,9.35,7.18.59,1,1.24,1.88,1.74,2.87s1.69,1.91,1.58,3.5a22.28,22.28,0,0,1-2.19.92c-3,1-6.09,1.94-9.16,2.83a624.37,624.37,0,0,1-93.29,19.39q-25,3.27-50.14,4.3a450.51,450.51,0,0,1-57.5-1.41,285.89,285.89,0,0,1-61-12.09c-49.48-15.63-93.38-41.24-132.73-74.85a21.05,21.05,0,0,1-1.9-2.1l.15.09c-.59,1.73.7,2.72,1.63,3.71,5.7,6,11.2,12.32,17.25,18,36.38,34.16,78.92,57.37,126.89,70.85,26.62,7.48,53.85,10.85,81.37,12.44a474.09,474.09,0,0,0,57.54-.18,451.61,451.61,0,0,0,59-7.53c24.36-4.81,48.21-11.36,71.1-21.14.84-.36,1.75-.55,2.74-.86,2.82,3.71,5.5,7.29,8.23,10.83s5.68,7.32,8.57,11,5.59,7,8.45,10.45,6,7.06,9,10.62,6.09,6.5,8.88,10.4c-1.44,1.25-2.67,2.5-4.07,3.5-5.73,4.08-11.31,8.4-17.3,12.06-21.41,13.12-44.49,22.43-68.65,29.09a380.05,380.05,0,0,1-56.47,10.76,475.79,475.79,0,0,1-57,3.22q-24-.06-47.9-2.24c-14-1.28-28-3-41.86-5.33a663.56,663.56,0,0,1-66.88-15A398.16,398.16,0,0,1,214.44,783.3q-94.91-63.09-149.79-163a362.46,362.46,0,0,1-28.74-66.34,255.63,255.63,0,0,1-9.5-44.48,289.44,289.44,0,0,1-2.23-35.4c0-9.74.73-19.49,1.35-29.22a293.13,293.13,0,0,1,5.34-38.45A405.71,405.71,0,0,1,73.1,290.62c28.76-52.78,66.77-97.92,113.32-135.81A574.17,574.17,0,0,1,343.56,64c53-20.42,108-32.27,164.56-37.19,18.81-1.64,37.67-2.39,56.54-2.42,23.52,0,47,.73,70.43,3,13.37,1.29,26.74,2.6,40.06,4.29q32.36,4.1,64.2,11.31a559.21,559.21,0,0,1,98.92,31.77Q951,123.4,1021.53,223.84a279.11,279.11,0,0,1,43.23,95.56,257.5,257.5,0,0,1,7,49.79c.3,7.34,0,14.71,0,22.07,0,1.4.13,2.91-1.2,4.1-4.49.53-9.11,1-13.68,1.64s-9.17,1.43-13.7,2.39-9.33,2.19-14,3.45c-4.47,1.21-8.92,2.53-13.32,4s-8.78,3-13.13,4.57-8.68,3.27-13,5-8.57,3.54-12.77,5.49c-4.35,2-8.67,4.12-12.88,6.4s-8,4.61-12,7.07-7.65,5.06-11.44,7.59a12.42,12.42,0,0,1-1.3-1.17c-9.09-11.28-20.47-19.75-33.21-26.37a176.51,176.51,0,0,0-64.28-19.59,70.05,70.05,0,0,0-27.52,2.3,11,11,0,0,1-2,.2c-.49-1-1-1.78-1.35-2.63a97.67,97.67,0,0,0-14.5-22.52C777.28,350.88,754,334.61,725.62,326a177.58,177.58,0,0,0-44.38-7.18,157,157,0,0,0-25.38.93c-5.82.69-4.48-.4-8,4.84a103,103,0,0,0-13.37,28.55,86.06,86.06,0,0,0-3.63,30.33c1.1,16.39,5.37,32.12,10.36,47.67a19.16,19.16,0,0,0,1.6,2.81c-.12-1.6-.11-2.24-.22-2.86a282.38,282.38,0,0,1-3.76-49.19A79.55,79.55,0,0,1,641,363.84c2.45-9.95,6.74-18.92,13.89-26.44a15.11,15.11,0,0,1,9.1-4.74,120.38,120.38,0,0,1,38.68.56,147.55,147.55,0,0,1,40,13c15.92,7.77,30.56,17.41,43,30.09,15.26,15.51,25.85,33.64,30.41,55.07.66,3.1,1.12,6.24,1.87,10.44a50.91,50.91,0,0,0,1-17,86,86,0,0,0-4.73-21.48c-.36-1-1-2-.08-3.22a71.91,71.91,0,0,1,14.74.05,219.76,219.76,0,0,1,61.92,14.32,157.86,157.86,0,0,1,44.07,25.88c1.32,1.1,2.8,2.07,3.58,3.42-.09.48-.06.69-.15.77-.82.76-1.63,1.53-2.51,2.22A225.11,225.11,0,0,0,913,467.28a216,216,0,0,0-27.19,34.06c-.46.72-1.47,1.38-.7,2.74,1-.88,1.88-1.72,2.81-2.55,8-7.18,15.79-14.5,23.9-21.49a403.08,403.08,0,0,1,50.37-37.5,184.36,184.36,0,0,1,28.43-14.88c23.1-9.29,47.21-13.71,72-15a72.72,72.72,0,0,1,14.36.6,12.17,12.17,0,0,1,6.44,2.92,32.5,32.5,0,0,1,6.86,8.57,69.88,69.88,0,0,1,5.72,13.69,320.16,320.16,0,0,1,10.47,45.76c.85,5.2,1.92,10.43,2.11,15.67.68,18.69-2.52,36.59-11.52,53.25a215,215,0,0,1-24,35.2,37.48,37.48,0,0,0-2.68,3.38c-.26.4,0,1.15.07,1.74l0-.11a89.81,89.81,0,0,0,18.15-16.28A137.38,137.38,0,0,0,1117,519.61c.28-1.19.11-2.57,1.38-3.34.3.17.66.25.83.48,1,1.27,1.92,2.55,2.81,3.88,20.87,31.24,31.77,65.7,33.12,103.19a202.68,202.68,0,0,1-4.32,48.13c-8.29,40.46-26.61,75.77-54.49,106.18-.86.93-1.81,1.77-2.92,2.85a715.93,715.93,0,0,0-75.22-32.74c.87-2,2.5-2.86,3.82-3.93a290.48,290.48,0,0,0,47.84-49c10.74-14,20-29,26.51-45.43,6.35-16,9.63-32.44,8.24-49.69a67.38,67.38,0,0,0-4.74-20.47,14.21,14.21,0,0,0-1.6-2.28c.25,3,.49,5.39.63,7.77,1,17.16-1.78,33.78-7.3,50-7.3,21.46-18.83,40.52-33.13,58-14.59,17.81-31.73,32.88-50.32,46.36-5.78,4.19-4,3.65-10.34,1.59-31.88-10.31-64.32-18-97.77-21a322.82,322.82,0,0,0-51.75-.38,31.45,31.45,0,0,0-4.74.67,17.84,17.84,0,0,0-3.59,1.27,2,2,0,0,0-1.36,2.27,2.77,2.77,0,0,0,1.43,1.74,25.34,25.34,0,0,0,6,1.33c2.86.16,5.75-.16,8.62-.21,8.79-.15,17.6-.59,26.38-.33a413.9,413.9,0,0,1,49.18,4.33,408.31,408.31,0,0,1,63,14.53c1.16.37,2.29.88,3.44,1.33-.24.5-.3.87-.52,1-1,.77-2.06,1.51-3.13,2.21a410.08,410.08,0,0,1-37.36,21.59c-5.59,2.84-4.22,2.52-9.34.45A419.28,419.28,0,0,0,894,754.53a287,287,0,0,0-45.72-8.25,44,44,0,0,0-5.74,0,2.64,2.64,0,0,0-1.71.7,1.77,1.77,0,0,0-.37,1.62,3.39,3.39,0,0,0,1.69,1.57,43.3,43.3,0,0,0,7.35,2c12.51,1.72,25,3.83,37.28,6.64A417.1,417.1,0,0,1,941,775.09a11,11,0,0,1,1.78.71c.45.26,1.31.25,1,1.44-.54.3-1.19.73-1.89,1.06-26.43,12.39-53.75,22.22-82.34,28.32A180.61,180.61,0,0,1,826.79,811c-9.11.26-18.21.58-27.33.73-11.83.19-23.66.15-35.47-.83A143.12,143.12,0,0,1,715.1,798a30.43,30.43,0,0,1-8-5.19c-3.74-3.5-7.61-6.86-11.22-10.48A615.1,615.1,0,0,1,650,730.12a156.8,156.8,0,0,1-15.54-24.19c-.73-1.38-1.33-2.82-2.24-4.77a46,46,0,0,1,4.72.4c6.9,1.35,13.8,2.71,20.67,4.2,12.51,2.7,24.82,6.13,37,10a54.42,54.42,0,0,0,8,1.64,3.1,3.1,0,0,0,3.4-1.21,2.68,2.68,0,0,0-1.9-2.5,57.44,57.44,0,0,0-5.75-2.37,347.59,347.59,0,0,0-56.26-13.88l-12.38-2a6.94,6.94,0,0,1-.85-1.1,207.88,207.88,0,0,1-12.79-37.61,9.32,9.32,0,0,1,.2-2.57c6.13,1.91,11.94,3.63,17.7,5.53a393,393,0,0,1,67.59,29.48,41.27,41.27,0,0,0,6.51,3,14.12,14.12,0,0,0,4.69.57,1.8,1.8,0,0,0,1.35-2.84,8.47,8.47,0,0,0-1.74-2.26,31.72,31.72,0,0,0-4.67-3.33c-7-3.87-13.94-7.84-21.1-11.38-21.43-10.59-43.91-18.36-67-24.34-1.83-.48-3.65-1-5.45-1.5-.37-1.34-.74-2.4-1-3.48a315.65,315.65,0,0,1-5.47-59.61c0-12.14.87-24.28,1.5-36.41a186.21,186.21,0,0,1,4.4-30.82,241.17,241.17,0,0,1,32.22-77c.77-1.21,1.61-2.39,2.26-3.67a4.3,4.3,0,0,0,.08-1.77ZM864.67,817.85c1.82-.48,3.14-.88,4.48-1.16a373.65,373.65,0,0,0,88.34-31.11c.86-.42,1.72-.84,2.57-1.3a3.44,3.44,0,0,1,3.21-.16c.88.39,1.76.77,2.63,1.17,24.09,10.82,47,23.86,69.67,37.3.61.35,1.56.6,1.31,1.94-.65.41-1.41,1-2.23,1.41a211.48,211.48,0,0,1-37.05,15.54,126.74,126.74,0,0,1-57.3,4.63c-26.4-4-50.74-13.85-74-26.72A11.75,11.75,0,0,1,864.67,817.85Zm-355-127c1.91-5,3.58-9.09,5.07-13.28s2.82-8.16,4-12.3,2.14-8.68,3.3-13,1.28-8.79,2.83-12.88c14.07-.69,63.85,6.75,78.7,11.8a254.56,254.56,0,0,0,12.59,42.56c-7.57-.76-14.51-1.44-21.45-1.89s-14-.82-21.06-1.09-14.06-.44-21.09-.5-14.06,0-21.09.11S517.45,690.68,509.67,690.84Zm579.82,94.35a234.17,234.17,0,0,1-47.09,36.36c-1.58-.89-3-1.66-4.32-2.46-7-4.12-14-8.33-21.09-12.35-15.14-8.59-30.56-16.66-46.33-24-1-.5-2.58-.56-2.82-2.2,7.53-4.51,15.16-8.86,22.56-13.57s14.56-9.78,22.05-14.84q38.1,13.89,74.83,31.58A18.9,18.9,0,0,1,1089.49,785.19Z"/><path class="cls-1" d="M1174.93,831.57c-.52-.31-1.06-.58-1.55-.93a1.78,1.78,0,0,0-2.08-.33l.08-.08c1.13.43,2,1.62,3.42,1.22Z"/><path class="cls-1" d="M1174.8,831.45a1.36,1.36,0,0,0,.12.12Z"/><path class="cls-1" d="M1126,883.23c-.31.68-.23,1.17.61,1.32l-.12.12c-.21-.43-.42-.86-.61-1.3Z"/><path class="cls-1" d="M1126.65,884.55l.78,1-.12.08-.78-.94Z"/><path class="cls-1" d="M1127.43,885.53c.37.49.73,1,1.1,1.49l-.21,0c-.33-.45-.67-.9-1-1.36Z"/><path class="cls-1" d="M1128.53,887l-.17-.29.27.06a1.87,1.87,0,0,0-.31.17Z"/><path class="cls-1" d="M762.86,697.32c4.87-2.37,9.06-4.32,13.17-6.43a73.26,73.26,0,0,1,13-4.9c5.68-1.65,11.4-3.14,17.06-4.87a52,52,0,0,0,8-3.17,23.18,23.18,0,0,0,5-3.59,7.33,7.33,0,0,0-.58-11.32,59.31,59.31,0,0,0-6.83-4.41A106.13,106.13,0,0,0,785.21,649c-11.22-2.53-22.46-5.09-33.9-6.48a27.1,27.1,0,0,0-7.14.1c-4.28.65-6.6,3-7,7.27a34.69,34.69,0,0,0,.33,8.57A49.76,49.76,0,0,0,742.07,672c1.71,3.61,3.58,7.14,5.37,10.71.72,1.43,1.44,2.86,2.13,4.3a23.31,23.31,0,0,1,2.59,12c-.51,7.65-.45,15.34-.72,23a69.32,69.32,0,0,1-2.93,18.41,32.44,32.44,0,0,1-10.13,15.43,49.07,49.07,0,0,1-27.78,11.83c-6.08.55-11.71-1.21-17.22-3.47-2.2-.89-4.33-1.94-6.51-2.93-.12.39-.36.78-.27.89,7.13,8.33,16,13,27.16,13a28.29,28.29,0,0,0,13.37-3.38c4.93-2.62,9.68-5.59,14.52-8.39a65.26,65.26,0,0,1,6.27-3.49c5.65-2.46,9.63-1.58,13.78,3a65,65,0,0,1,4.93,6.48,136.49,136.49,0,0,0,12.85,16.11,70.15,70.15,0,0,0,15.66,12.58c11.41,6.59,23.57,7.56,36.18,4.62a29.27,29.27,0,0,0,6.19-2.52,12.91,12.91,0,0,0,3-2.36c.69-.67,1.27-1.57.69-2.56s-1.62-.9-2.57-.69a6.76,6.76,0,0,0-1.77.71,16.62,16.62,0,0,1-9.72,2c-4.62-.32-9.27-.63-13.82-1.39a40.36,40.36,0,0,1-20-9.77,72.58,72.58,0,0,1-11.78-13.23c-4.4-6.29-8.71-12.64-12.87-19.09-4.78-7.43-6.85-15.81-7.65-24.49a115.85,115.85,0,0,1,1.1-28.69C762.3,699.42,762.66,698.19,762.86,697.32Z"/><path class="cls-2" d="M667.14,343.12c-1.76,2.65-3.55,5.08-5.09,7.68a116.14,116.14,0,0,0-13.46,35.7,80.14,80.14,0,0,0-1.9,20.94,61.26,61.26,0,0,0,4.07,18.21,6.54,6.54,0,0,0,.06-.89c0-.48-.08-1-.09-1.44-.07-6.39-.26-12.78-.17-19.17.2-13.28,2.89-26,9-37.9q3.83-7.47,7.8-14.85a38.72,38.72,0,0,1,2.21-3.29c11.38,3.92,22.29,8.42,31.74,15.75,18.86,14.62,33.87,32.43,44,54.2,2.69,5.79,5.32,11.62,8.16,17.34a62.53,62.53,0,0,0,5,8.17,15.91,15.91,0,0,0,3.8,3.56,2.79,2.79,0,0,0,3.91-.44,9.11,9.11,0,0,0,2.14-3.13,28.51,28.51,0,0,0,1.43-6.5c.55-6.67-1-13-3.5-19.15a69.59,69.59,0,0,0-9.83-16.39c-11.84-15.12-26.1-27.6-42-38.3A159.76,159.76,0,0,0,689,348.84a74.71,74.71,0,0,0-15.46-5C671.49,343.42,669.41,343.35,667.14,343.12Z"/><path class="cls-2" d="M902.37,627a2.82,2.82,0,0,1,3.16,0c2.4,1.27,4.85,2.46,7.16,3.87,13.26,8.11,24.26,18.68,33.69,31,.93,1.2,1.49,2.79,3.35,3.53a22.29,22.29,0,0,0-2-6.49,71.63,71.63,0,0,0-16.34-24,87,87,0,0,0-42.84-23.19,43,43,0,0,0-20.88.38,27.07,27.07,0,0,0-8.19,3.71,13.56,13.56,0,0,0,2.13,1.15,153,153,0,0,1,26.64,11.89c19.08,10.8,33.15,26.36,43.46,45.47,2.5,4.63,4.55,9.51,6.75,14.29.45,1,.84,2,1.82,3.94.17-2,.33-2.91.3-3.78a66.76,66.76,0,0,0-7.24-27.11c-6.94-14.07-17.29-25.21-30-34.28-.26-.18-.58-.26-.85-.41.24-.17-.4-.82.39-.63Z"/><path class="cls-2" d="M679.15,622.41c14.41-13.06,30.24-23.64,48.82-29.66s37.33-6.4,56.59-3.91c-.37-2.1-1.71-3.3-2.85-4.58a38.34,38.34,0,0,0-14.16-9.63,64,64,0,0,0-21-4.48,87,87,0,0,0-42,7.51,70.45,70.45,0,0,0-19,12.77,22.17,22.17,0,0,0-3.37,4c2.27-.38,4.07-1.67,6-2.56s4-1.94,6.08-2.84,4.41-1.89,6.65-2.74,4.21-1.5,6.34-2.18,4.28-1.3,6.44-1.87,4.34-1.12,6.53-1.56q3.52-.7,7.1-1.17c2.21-.29,4.45-.47,6.68-.61s4.35-.5,6.52.06c-.12,1.36-1.09,1.22-1.8,1.35a96.93,96.93,0,0,0-28,9.72,76.25,76.25,0,0,0-25.19,21.07A37.9,37.9,0,0,0,679.15,622.41Z"/><path class="cls-2" d="M940.08,511.82c7.71-2,15.45-4,23.12-6.15a260.52,260.52,0,0,0,55.25-22.78q27.71-15.3,54.21-32.57c1.33-.87,2.69-1.68,4-2.49,2.66,2.34,4.75,5.8,8.37,14.9,2.18,5.48,4,11.1,5.75,16.75a66.51,66.51,0,0,1,2.76,17c.21,5.72,0,11.45,0,17.52a29.94,29.94,0,0,0,1.18-3.36A98.13,98.13,0,0,0,1097,483a81.16,81.16,0,0,0-3.43-17.35,133.47,133.47,0,0,0-13.91-31.47c-.65-1.08-1.41-2.1-2.26-3.36a11.6,11.6,0,0,0-1.56,1.08c-14.36,14.53-30.72,26.49-48.13,37-23.84,14.42-49,26.3-74.79,36.65-3.86,1.54-7.74,3-11.61,4.51-.82.32-1.39.75-1.18,1.74Z"/><path class="cls-1" d="M369.81,641.29l-3.58-.44c1.33,1.26,2.4.5,3.47.35Z"/><path class="cls-1" d="M380.58,707.42h-2.26v0h2.26Z"/><path class="cls-1" d="M940.15,511.85l-1.68-.49-.05.42c.53,0,1.07,0,1.63,0Z"/><path class="cls-1" d="M649.59,433.33l.15-.22.21.22a1.71,1.71,0,0,0-.23.13Z"/><path class="cls-1" d="M648.15,434.24l1.44-.91.13.13c-.47.29-.94.58-1.42.86Z"/><path class="cls-1" d="M439.2,457.44l-.26-.13h.38Z"/><path class="cls-1" d="M440.14,459l-.94-1.57.12-.13c.29.51.58,1,.86,1.55C440.17,458.89,440.14,459,440.14,459Z"/><path class="cls-1" d="M1070.38,593.47l-.55-.55.49.41A1.14,1.14,0,0,1,1070.38,593.47Z"/><path class="cls-1" d="M229.48,671.06l0,.32.12-.22Z"/></g></g></svg>