<svg xmlns="http://www.w3.org/2000/svg" xmlns:xlink="http://www.w3.org/1999/xlink" viewBox="0 0 514.5 491.17"><defs><style>.cls-1,.cls-5{fill:none;}.cls-2{clip-path:url(#clip-path);}.cls-3{fill-opacity:0;}.cls-4{fill:#4f3012;stroke:#4f3012;}.cls-4,.cls-6{stroke-miterlimit:10;stroke-width:0.95px;}.cls-5,.cls-6{stroke:#f8d6b4;}.cls-5{stroke-linejoin:round;stroke-width:45px;}.cls-6{fill:#f8d6b4;}</style><clipPath id="clip-path" transform="translate(-1.25 -0.96)"><rect class="cls-1" width="517" height="493.09"/></clipPath></defs><g id="Layer_2" data-name="Layer 2"><g id="Layer_1-2" data-name="Layer 1"><g class="cls-2"><path class="cls-3" d="M4,3.82H513V489.28H4Z" transform="translate(-1.25 -0.96)"/><path class="cls-4" d="M23.75,101.25A74.36,74.36,0,0,1,98.11,26.89H418.89a74.36,74.36,0,0,1,74.36,74.36V398.7a74.36,74.36,0,0,1-74.36,74.36H98.11A74.36,74.36,0,0,1,23.75,398.7Z" transform="translate(-1.25 -0.96)"/><path class="cls-5" d="M23.75,97.82A74.36,74.36,0,0,1,98.11,23.46H418.89a74.36,74.36,0,0,1,74.36,74.36V395.27a74.36,74.36,0,0,1-74.36,74.36H98.11a74.36,74.36,0,0,1-74.36-74.36Z" transform="translate(-1.25 -0.96)"/><path class="cls-6" d="M245.21,206.13h38.7V186.29q0-33.25,7.08-49.62T317,110q19-10.29,48-10.29a194.19,194.19,0,0,1,58.3,8.92l-9.43,48.63a137.51,137.51,0,0,0-32-4q-15.14,0-21.7,7.07t-6.57,27.17v18.61h52.09V261H353.64V469.63H283.91V261h-38.7V206.13Z" transform="translate(-1.25 -0.96)"/></g></g></g></svg>