<svg xmlns="http://www.w3.org/2000/svg" viewBox="0 0 504 503.9"><defs><style>.cls-1{fill:#f8d6b4;}</style></defs><g id="Layer_2" data-name="Layer 2"><g id="Logo"><path class="cls-1" d="M251.9,45.4c67.3,0,75.2.3,101.8,1.5,24.6,1.1,37.9,5.2,46.8,8.7a78.18,78.18,0,0,1,29,18.8,77,77,0,0,1,18.8,29c3.4,8.9,7.6,22.2,8.7,46.8,1.2,26.6,1.5,34.5,1.5,101.8s-.3,75.2-1.5,101.8c-1.1,24.6-5.2,37.9-8.7,46.8a78.18,78.18,0,0,1-18.8,29,77,77,0,0,1-29,18.8c-8.9,3.4-22.2,7.6-46.8,8.7-26.6,1.2-34.5,1.5-101.8,1.5s-75.2-.3-101.8-1.5c-24.6-1.1-37.9-5.2-46.8-8.7a78.18,78.18,0,0,1-29-18.8,77,77,0,0,1-18.8-29c-3.4-8.9-7.6-22.2-8.7-46.8-1.2-26.6-1.5-34.5-1.5-101.8s.3-75.2,1.5-101.8c1.1-24.6,5.2-37.9,8.7-46.8a78.18,78.18,0,0,1,18.8-29,77,77,0,0,1,29-18.8c8.9-3.4,22.2-7.6,46.8-8.7,26.6-1.3,34.5-1.5,101.8-1.5m0-45.4C183.5,0,174.9.3,148,1.5S102.9,7,86.9,13.2A122.79,122.79,0,0,0,42.3,42.3,125,125,0,0,0,13.2,86.9C7,102.9,2.7,121.2,1.5,148.1S0,183.5,0,251.9s.3,77,1.5,103.9S7,400.9,13.2,417a122.79,122.79,0,0,0,29.1,44.6,125,125,0,0,0,44.6,29.1c16,6.2,34.3,10.5,61.2,11.7s35.4,1.5,103.9,1.5,77-.3,103.9-1.5,45.1-5.5,61.2-11.7a122.79,122.79,0,0,0,44.6-29.1A125,125,0,0,0,490.8,417c6.2-16,10.5-34.3,11.7-61.2s1.5-35.4,1.5-103.9-.3-77-1.5-103.9-5.5-45.1-11.7-61.2a122.79,122.79,0,0,0-29.1-44.6,125,125,0,0,0-44.6-29.1c-16-6.2-34.3-10.5-61.2-11.7S320.3,0,251.9,0Z"/><path class="cls-1" d="M251.9,122.5A129.4,129.4,0,1,0,381.3,251.9,129.42,129.42,0,0,0,251.9,122.5Zm0,213.4a84,84,0,1,1,84-84A84,84,0,0,1,251.9,335.9Z"/><circle class="cls-1" cx="386.4" cy="117.4" r="30.2"/></g></g></svg>