<svg xmlns="http://www.w3.org/2000/svg" viewBox="0 0 1447.62 346.93"><defs><style>.cls-1,.cls-2{fill:#4f3012;}.cls-1{stroke:#4f3012;stroke-miterlimit:10;stroke-width:2.53px;}</style></defs><g id="Layer_2" data-name="Layer 2"><g id="Layer_1-2" data-name="Layer 1"><path class="cls-1" d="M1429.05,259.74a122.08,122.08,0,0,0-11.84-9.19c-.21-.15-.41-.32-.68-.52.91-.64,1.77-1.23,2.61-1.86s1.72-1.32,2.56-2,1.59-1.38,2.36-2.1,1.5-1.47,2.26-2.22c4.16,2.16,8.18,4.45,12.08,7l0,0c0-.11,0-.27-.1-.33-.32-.28-.67-.53-1-.78a106.48,106.48,0,0,0-9.29-6c-.26-.14-.51-.3-.76-.45a1.83,1.83,0,0,1-.16-.13,2.15,2.15,0,0,1,.63-.87,50.34,50.34,0,0,0,8.5-13.82,51.26,51.26,0,0,0,3.51-13.73,44.93,44.93,0,0,0-8.78-32.35,3.87,3.87,0,0,1-.77-1.87,71.89,71.89,0,0,0-2.71-12.22A18.41,18.41,0,0,0,1426,163a11.21,11.21,0,0,0-2.89-3.46c-.1-.08-.19-.18-.34-.31,0-.16,0-.36,0-.55a59.9,59.9,0,0,0-9-34.05,84.48,84.48,0,0,0-10.77-14A92.27,92.27,0,0,0,1373,89.34a116.87,116.87,0,0,0-20.55-6.92c-4.77-1.15-9.59-2-14.44-2.71-3.26-.45-6.54-.8-9.82-1.08a167.65,167.65,0,0,0-18.35-.55c-3.09.07-6.18.27-9.26.54s-6.35.69-9.5,1.19a122.82,122.82,0,0,0-60.79,28.09,96.16,96.16,0,0,0-24.79,32.49,86.82,86.82,0,0,0-6.59,19.91,81.52,81.52,0,0,0-1.3,9.48,73.51,73.51,0,0,0-.13,8.78,58.91,58.91,0,0,0,4.42,20.14,96.49,96.49,0,0,0,12.87,22.12,99.69,99.69,0,0,0,23.4,22.06,87.23,87.23,0,0,0,25.63,11.78,138.41,138.41,0,0,0,14.92,3.31q5.57.9,11.18,1.28a110.38,110.38,0,0,0,12.73.15,86,86,0,0,0,22.23-3.75,60.26,60.26,0,0,0,11-4.71,41.51,41.51,0,0,0,5.9-3.94c.15-.13.31-.24.5-.38l.72.28a33.92,33.92,0,0,0,11.63,2.87,110.33,110.33,0,0,0,12.73,0c1,0,2.11-.1,3.15-.2a1.78,1.78,0,0,1,1.11.33,57.81,57.81,0,0,0,7.65,3.88,48.6,48.6,0,0,0,9.42,2.89,31.39,31.39,0,0,0,15.13-.76,48.3,48.3,0,0,0,10.82-4.74l1.13-.66.93.58c3.95,2.58,7.79,5.29,11.51,8.19a4.29,4.29,0,0,0,.55.4c.1.06.25,0,.37,0Zm-129.54-34.55.07,0-.06,0c.39-.69.79-1.37,1.17-2.07s.75-1.45,1.13-2.17a118.94,118.94,0,0,1,22.66.78,6.23,6.23,0,0,1,1.06,2.45l-.86-.2c-.87-.18-1.74-.37-2.61-.53a53.14,53.14,0,0,0-6.78-.68,47.46,47.46,0,0,0-6.31,0,23,23,0,0,0-9,2.33A1.33,1.33,0,0,1,1299.51,225.19Zm31.22-57.87a30.94,30.94,0,0,0-3.53,4.61,42.14,42.14,0,0,0-5.87,16.11,75.2,75.2,0,0,0-.85,9.13,66.07,66.07,0,0,0,.21,8.67c.13,1.34.31,2.68.46,4a4,4,0,0,1,0,.61c-.32,0-.58,0-.83-.09a111.69,111.69,0,0,0-13.76-2,2.39,2.39,0,0,1-1.1-.24c0-.59.07-1.17.12-1.76a36.19,36.19,0,0,0-.59-9.91,32.67,32.67,0,0,0-4.13-10.51,46.65,46.65,0,0,0-12.12-13.23,5.72,5.72,0,0,0-.58-.37c-.07,0-.18,0-.28,0v0c1,1,2,1.9,2.94,2.91a47.67,47.67,0,0,1,8.43,12.33,34.13,34.13,0,0,1,2.87,9.3,43,43,0,0,1,.19,10.63,3,3,0,0,1-.13.49c-.42,0-.81,0-1.2,0-1.25,0-2.5-.11-3.75-.14-3.26-.07-6.51,0-9.77.17-3,.17-6.1.43-9.13.84-1.53.21-3,.49-4.58.74-.17,0-.31.08-.35.27h0c3.17-.34,6.35-.65,9.54-.76s6.38-.21,9.57-.24a60.41,60.41,0,0,1,9.53.45c0,2.09-1.93,9.17-3.16,10.92l-2.63.21c-1.81.15-3.61.27-5.41.48-2.81.34-5.61.69-8.41,1.13-2.14.33-4.26.78-6.39,1.2-.15,0-.27.15-.4.23h0a1.42,1.42,0,0,1,.18-.08c2-.29,4.1-.6,6.15-.85,2.68-.33,5.36-.64,8-.9,2.45-.23,4.91-.38,7.38-.56a2.58,2.58,0,0,1,1.07,0c.07.37-.16.64-.3.92a42.21,42.21,0,0,1-3.59,5.9c-.23.32-.46.64-.66,1a2.85,2.85,0,0,0-.29.73.46.46,0,0,0,.55.6,5.42,5.42,0,0,0,1.11-.39,5.86,5.86,0,0,0,2-1.67,4.33,4.33,0,0,1,2-1.43l1-.41a32.32,32.32,0,0,1,12.21-1.87,63.27,63.27,0,0,1,7.28.49,39.3,39.3,0,0,1,6.09,1.21c1.25.36,1.25.37,1.93,1.48.12.19.25.38.36.59s.35.39.32.72a4.32,4.32,0,0,1-.45.19c-.62.2-1.25.4-1.88.58a129.61,129.61,0,0,1-19.2,4q-5.14.67-10.33.89a93.48,93.48,0,0,1-11.83-.29,59.37,59.37,0,0,1-12.55-2.49,78,78,0,0,1-27.32-15.41,4.07,4.07,0,0,1-.4-.43l0,0c-.13.35.14.56.33.76,1.17,1.25,2.31,2.54,3.55,3.71a62,62,0,0,0,26.12,14.58,78.37,78.37,0,0,0,16.75,2.56,97.44,97.44,0,0,0,11.84,0,91.64,91.64,0,0,0,12.13-1.55,73.13,73.13,0,0,0,14.64-4.35c.17-.07.36-.11.56-.18l1.69,2.23c.59.76,1.17,1.51,1.77,2.26s1.15,1.44,1.74,2.15,1.24,1.45,1.85,2.18,1.25,1.34,1.83,2.14a10.45,10.45,0,0,1-.84.72c-1.18.84-2.33,1.73-3.56,2.49a54.65,54.65,0,0,1-14.13,6,78,78,0,0,1-11.63,2.22,97.62,97.62,0,0,1-11.72.66q-4.93,0-9.86-.46c-2.89-.26-5.76-.62-8.61-1.1a134.86,134.86,0,0,1-13.77-3.08,81.86,81.86,0,0,1-23.81-10.8,94.78,94.78,0,0,1-30.83-33.55,75.2,75.2,0,0,1-5.92-13.66,52.85,52.85,0,0,1-2-9.15,59.33,59.33,0,0,1-.46-7.29c0-2,.15-4,.28-6a60.35,60.35,0,0,1,1.1-7.92,83.3,83.3,0,0,1,8.69-23.82,93.39,93.39,0,0,1,23.32-28A118.36,118.36,0,0,1,1268,91.09a123.43,123.43,0,0,1,33.87-7.65c3.87-.34,7.75-.49,11.63-.5,4.84,0,9.68.15,14.5.62,2.75.26,5.5.53,8.24.88q6.66.84,13.22,2.33a114.73,114.73,0,0,1,20.36,6.54A87.48,87.48,0,0,1,1407.56,124a57.52,57.52,0,0,1,8.9,19.67,53.72,53.72,0,0,1,1.43,10.25c.06,1.51,0,3,0,4.54,0,.29,0,.6-.25.84-.92.11-1.87.2-2.82.34s-1.88.29-2.81.49-1.93.45-2.88.71-1.83.52-2.74.82-1.81.61-2.7.94-1.79.67-2.67,1-1.76.73-2.63,1.13-1.78.85-2.65,1.32-1.66.95-2.47,1.46-1.57,1-2.35,1.56c-.12-.11-.21-.17-.27-.24a21.06,21.06,0,0,0-6.83-5.43,36.39,36.39,0,0,0-13.23-4,14.3,14.3,0,0,0-5.67.47,1.59,1.59,0,0,1-.4,0c-.1-.19-.2-.36-.28-.54a20.12,20.12,0,0,0-3-4.63,30.92,30.92,0,0,0-14.6-9.71,36.28,36.28,0,0,0-9.13-1.48,32.64,32.64,0,0,0-5.23.19c-1.19.14-.92-.08-1.65,1a21.28,21.28,0,0,0-2.75,5.87,17.86,17.86,0,0,0-.75,6.25,41.24,41.24,0,0,0,2.14,9.81,3,3,0,0,0,.33.58c0-.33,0-.46,0-.59a57.26,57.26,0,0,1-.77-10.13,16,16,0,0,1,.44-3.71,11.68,11.68,0,0,1,2.86-5.45,3.1,3.1,0,0,1,1.87-1,24.72,24.72,0,0,1,8,.11,30.32,30.32,0,0,1,8.23,2.69,31.77,31.77,0,0,1,8.86,6.19,22.7,22.7,0,0,1,6.26,11.34c.13.64.23,1.28.38,2.15a10.46,10.46,0,0,0,.22-3.51,17.65,17.65,0,0,0-1-4.42c-.08-.21-.22-.41,0-.66a14,14,0,0,1,3,0,45.4,45.4,0,0,1,12.75,2.94,32.75,32.75,0,0,1,9.07,5.33,3.14,3.14,0,0,1,.74.71c0,.09,0,.14,0,.15a5.57,5.57,0,0,1-.51.46,45.81,45.81,0,0,0-4.7,4.22,44.06,44.06,0,0,0-5.6,7c-.09.15-.3.28-.14.56l.58-.52c1.63-1.48,3.25-3,4.92-4.43a83.92,83.92,0,0,1,10.36-7.72,39.21,39.21,0,0,1,5.85-3.06,45.65,45.65,0,0,1,14.82-3.08,15.34,15.34,0,0,1,3,.12,2.57,2.57,0,0,1,1.33.6,6.88,6.88,0,0,1,1.41,1.77,14.25,14.25,0,0,1,1.18,2.82,66.07,66.07,0,0,1,2.15,9.41,25.56,25.56,0,0,1,.44,3.23,21,21,0,0,1-2.37,11,44.84,44.84,0,0,1-4.95,7.25,6.16,6.16,0,0,0-.55.69c0,.08,0,.24,0,.36v0a18.35,18.35,0,0,0,3.74-3.35,28.39,28.39,0,0,0,5.86-11.83c.06-.25,0-.53.28-.69.07,0,.14.05.17.1.2.26.4.52.58.8a40.08,40.08,0,0,1,6.82,21.24,41.72,41.72,0,0,1-.89,9.9,45.27,45.27,0,0,1-11.22,21.86c-.17.19-.37.36-.6.58a148.69,148.69,0,0,0-15.48-6.74,2.17,2.17,0,0,1,.79-.8,60.22,60.22,0,0,0,9.85-10.08,39.78,39.78,0,0,0,5.45-9.35,22.55,22.55,0,0,0,1.7-10.23,13.89,13.89,0,0,0-1-4.21,2.76,2.76,0,0,0-.33-.47c.05.62.1,1.11.13,1.6a26.7,26.7,0,0,1-1.5,10.29,38.1,38.1,0,0,1-6.82,11.93,54.23,54.23,0,0,1-10.36,9.54c-1.19.87-.82.76-2.13.33a92.2,92.2,0,0,0-20.12-4.32,66.44,66.44,0,0,0-10.65-.07,6.41,6.41,0,0,0-1,.13,3.73,3.73,0,0,0-.73.26.41.41,0,0,0-.28.47.53.53,0,0,0,.29.36,4.83,4.83,0,0,0,1.24.27c.59,0,1.18,0,1.78,0,1.81,0,3.62-.12,5.42-.07a84.43,84.43,0,0,1,23.09,3.88c.24.08.48.18.71.28,0,.1-.06.18-.1.21-.21.16-.43.31-.65.46a86.18,86.18,0,0,1-7.69,4.44c-1.15.59-.87.52-1.92.09a86.38,86.38,0,0,0-10.75-3.6,59.15,59.15,0,0,0-9.41-1.7,11.61,11.61,0,0,0-1.18,0,.56.56,0,0,0-.36.15.34.34,0,0,0-.07.33.64.64,0,0,0,.35.32,7.86,7.86,0,0,0,1.51.42c2.57.35,5.13.79,7.67,1.37a84.46,84.46,0,0,1,11.14,3.34,2,2,0,0,1,.37.15c.09,0,.27,0,.21.29a4.27,4.27,0,0,1-.38.22,78.29,78.29,0,0,1-17,5.83,37.29,37.29,0,0,1-6.74.91c-1.88,0-3.75.12-5.63.15-2.43,0-4.87,0-7.3-.17a29.52,29.52,0,0,1-10.06-2.66,6.37,6.37,0,0,1-1.65-1.06c-.77-.72-1.57-1.42-2.31-2.16a125.28,125.28,0,0,1-9.44-10.76,32.87,32.87,0,0,1-3.2-5c-.15-.29-.27-.58-.46-1a7.88,7.88,0,0,1,1,.08c1.42.27,2.84.55,4.26.86,2.57.56,5.1,1.26,7.62,2.05a11,11,0,0,0,1.63.34.63.63,0,0,0,.7-.25.54.54,0,0,0-.39-.51c-.39-.18-.78-.35-1.18-.49a72,72,0,0,0-11.58-2.86l-2.55-.42a2.55,2.55,0,0,1-.18-.22,43.31,43.31,0,0,1-2.63-7.74,2.16,2.16,0,0,1,0-.53c1.27.39,2.46.74,3.65,1.14a80.57,80.57,0,0,1,13.91,6.06,8.14,8.14,0,0,0,1.34.62,2.82,2.82,0,0,0,1,.12.37.37,0,0,0,.28-.59,1.79,1.79,0,0,0-.36-.46,6,6,0,0,0-1-.69c-1.44-.79-2.87-1.61-4.34-2.34a71.16,71.16,0,0,0-13.8-5l-1.12-.31a7,7,0,0,1-.19-.71,64.85,64.85,0,0,1-1.13-12.27c0-2.5.18-5,.31-7.5a38.73,38.73,0,0,1,.9-6.34,49.41,49.41,0,0,1,6.64-15.85c.15-.25.33-.5.46-.76,0-.1,0-.24,0-.36Zm44.54,78.94c.38-.1.65-.18.93-.24a76.78,76.78,0,0,0,18.18-6.4l.53-.27a.7.7,0,0,1,.66,0l.54.24a144,144,0,0,1,14.34,7.68c.12.07.32.12.27.4-.14.08-.29.2-.46.29a43.66,43.66,0,0,1-7.63,3.2,26.17,26.17,0,0,1-11.79,1,45.46,45.46,0,0,1-15.22-5.5A2.19,2.19,0,0,1,1375.27,246.26Zm-73.06-26.14c.39-1,.73-1.87,1-2.73s.58-1.68.82-2.53.44-1.79.68-2.68.27-1.81.59-2.65c2.89-.14,13.14,1.39,16.19,2.43a52.66,52.66,0,0,0,2.6,8.76c-1.56-.16-3-.3-4.42-.39s-2.89-.17-4.34-.22-2.89-.09-4.34-.11-2.89,0-4.34,0Zm119.34,19.42a48.22,48.22,0,0,1-9.7,7.48l-.89-.5c-1.44-.85-2.88-1.72-4.34-2.54q-4.66-2.65-9.53-5c-.22-.1-.53-.11-.58-.45,1.55-.93,3.12-1.82,4.64-2.79s3-2,4.54-3.06q7.85,2.86,15.4,6.51A3.08,3.08,0,0,1,1421.55,239.54Z"/><path class="cls-1" d="M1439.13,249.09a3.45,3.45,0,0,1-.32-.2.38.38,0,0,0-.43-.06l0,0c.23.09.41.33.7.25Z"/><path class="cls-1" d="M1439.1,249.06l0,0Z"/><path class="cls-1" d="M1354.32,221.45c1-.48,1.86-.89,2.71-1.32a14.82,14.82,0,0,1,2.67-1c1.17-.34,2.35-.64,3.51-1a10.67,10.67,0,0,0,1.65-.65,4.79,4.79,0,0,0,1-.74,1.51,1.51,0,0,0-.12-2.33,10.94,10.94,0,0,0-1.41-.91,21.73,21.73,0,0,0-5.45-2c-2.31-.52-4.62-1-7-1.33a5.57,5.57,0,0,0-1.47,0,1.53,1.53,0,0,0-1.45,1.5,6.93,6.93,0,0,0,.07,1.76,10.41,10.41,0,0,0,1,2.8c.35.74.74,1.47,1.1,2.2.15.3.3.59.44.89a4.8,4.8,0,0,1,.54,2.46c-.11,1.57-.1,3.16-.15,4.74a14.29,14.29,0,0,1-.61,3.78,6.61,6.61,0,0,1-2.08,3.18,10.1,10.1,0,0,1-5.72,2.44,7.46,7.46,0,0,1-3.54-.72c-.46-.18-.89-.4-1.34-.6,0,.08-.08.16-.06.18a7.08,7.08,0,0,0,5.59,2.68,5.85,5.85,0,0,0,2.75-.7c1-.54,2-1.15,3-1.73a13.53,13.53,0,0,1,1.29-.71,2.17,2.17,0,0,1,2.84.62,14.68,14.68,0,0,1,1,1.34,29.11,29.11,0,0,0,2.65,3.31,14.37,14.37,0,0,0,3.22,2.59,9.84,9.84,0,0,0,7.45,1,5.57,5.57,0,0,0,1.27-.52,2.58,2.58,0,0,0,.62-.48c.14-.14.26-.33.14-.53s-.34-.18-.53-.14a1.14,1.14,0,0,0-.36.15,3.45,3.45,0,0,1-2,.41c-1-.07-1.9-.13-2.84-.29a8.28,8.28,0,0,1-4.12-2,14.92,14.92,0,0,1-2.42-2.72c-.91-1.3-1.8-2.6-2.65-3.93a11.09,11.09,0,0,1-1.58-5,23.87,23.87,0,0,1,.23-5.91C1354.2,221.89,1354.28,221.63,1354.32,221.45Z"/><path class="cls-2" d="M1338,148.89c-.36.55-.73,1.05-1,1.58a24.23,24.23,0,0,0-2.77,7.35,16.45,16.45,0,0,0-.39,4.31,12.58,12.58,0,0,0,.84,3.75c0-.06,0-.12,0-.18s0-.2,0-.3c0-1.31,0-2.63,0-4a17.35,17.35,0,0,1,1.85-7.8c.52-1,1.06-2,1.6-3.05a7.43,7.43,0,0,1,.46-.68,22.16,22.16,0,0,1,6.53,3.24,30,30,0,0,1,9,11.16c.55,1.19,1.09,2.39,1.68,3.57a13.2,13.2,0,0,0,1,1.68,3.39,3.39,0,0,0,.78.73.57.57,0,0,0,.81-.09,1.93,1.93,0,0,0,.44-.64,5.74,5.74,0,0,0,.29-1.34,8.36,8.36,0,0,0-.72-3.94,14,14,0,0,0-2-3.38,37.24,37.24,0,0,0-8.64-7.88,33.2,33.2,0,0,0-5.23-3,15,15,0,0,0-3.18-1A12.44,12.44,0,0,0,1338,148.89Z"/><path class="cls-2" d="M1383,207a.57.57,0,0,1,.65,0c.5.26,1,.51,1.48.8a25.51,25.51,0,0,1,6.93,6.37c.19.25.31.58.69.73a4.47,4.47,0,0,0-.42-1.34,14.75,14.75,0,0,0-3.36-4.94,17.9,17.9,0,0,0-8.82-4.77,8.78,8.78,0,0,0-4.29.08,5.39,5.39,0,0,0-1.69.76,3.36,3.36,0,0,0,.44.24,31.57,31.57,0,0,1,5.48,2.44,23,23,0,0,1,9,9.36c.51,1,.93,2,1.39,2.94.09.2.17.4.37.81a6.15,6.15,0,0,0,.06-.77,13.71,13.71,0,0,0-1.49-5.58,19,19,0,0,0-6.17-7.06s-.12,0-.17-.09-.08-.16.08-.12Z"/><path class="cls-2" d="M1337.09,206a27.59,27.59,0,0,1,10.05-6.11,26.15,26.15,0,0,1,11.64-.8,1.87,1.87,0,0,0-.58-.95,7.89,7.89,0,0,0-2.92-2,13.1,13.1,0,0,0-4.32-.92,17.9,17.9,0,0,0-8.66,1.54,14.76,14.76,0,0,0-3.91,2.63,5,5,0,0,0-.7.82,4.93,4.93,0,0,0,1.25-.52l1.25-.59c.45-.2.9-.39,1.37-.56s.86-.31,1.3-.45.88-.27,1.33-.38.89-.23,1.34-.32,1-.18,1.46-.25.92-.09,1.38-.12a4.3,4.3,0,0,1,1.34,0c0,.28-.23.25-.37.28a19.71,19.71,0,0,0-5.76,2,15.61,15.61,0,0,0-5.18,4.34A7.51,7.51,0,0,0,1337.09,206Z"/><path class="cls-2" d="M1390.79,183.27c1.59-.42,3.18-.82,4.76-1.26a53.21,53.21,0,0,0,11.37-4.69c3.81-2.1,7.52-4.33,11.16-6.7l.82-.52a7.53,7.53,0,0,1,1.72,3.07c.45,1.13.83,2.29,1.19,3.45a14.22,14.22,0,0,1,.57,3.49c0,1.18,0,2.36,0,3.61a6,6,0,0,0,.25-.69,20.07,20.07,0,0,0,.47-5.68,17.33,17.33,0,0,0-.71-3.58,27.91,27.91,0,0,0-2.86-6.47c-.14-.23-.29-.43-.47-.69a2.21,2.21,0,0,0-.32.22,50.57,50.57,0,0,1-9.91,7.62,104.42,104.42,0,0,1-15.39,7.54c-.79.32-1.59.63-2.39.93-.17.07-.28.16-.24.36Z"/><path class="cls-1" d="M1273.42,209.92l-.74-.09c.27.26.5.1.72.07Z"/><path class="cls-1" d="M1275.64,223.53h0Z"/><path class="cls-1" d="M1390.81,183.28l-.35-.1v.08h.36Z"/><path class="cls-1" d="M1331,167.12l0-.05,0,.05,0,0Z"/><path class="cls-1" d="M1330.71,167.31l.29-.19,0,0-.29.17Z"/><path class="cls-1" d="M1287.7,172.08l0,0h.07Z"/><path class="cls-1" d="M1287.89,172.41c-.06-.11-.12-.22-.19-.33l0,0,.18.31Z"/><path class="cls-1" d="M1417.61,200.08l-.11-.11.1.08Z"/><path class="cls-1" d="M1244.53,216.05v.06l0,0Z"/><path class="cls-2" d="M154.81,22.7q-22,0-44.58,54L82.92,145.76q-26,66-49.85,86.71,34.21-12,80.12-16,6.59-.66,12.83-.66a48.72,48.72,0,0,1,13.41,2.06,36.17,36.17,0,0,1,12.42,6.17q11.35,8.88,11.35,25,0,8.89-6.58,8.89a15.14,15.14,0,0,1-7.07-1.81,70.08,70.08,0,0,0-7.82-3.46,98.08,98.08,0,0,0-10.11-3.12,105.92,105.92,0,0,0-27.07-3.46A183.23,183.23,0,0,0,77.82,248Q65,249.92,53.63,252l-21.22,4.12A88.33,88.33,0,0,1,17.69,258q-5,0-7.74-2.22a25.51,25.51,0,0,1-5-5.68Q0,242.51,0,237.73q0-7.72,3.62-9.87,14.15-7.56,31.92-58.73Q52,121.74,58,105.62t13.25-31.5A270.83,270.83,0,0,1,87,45.24a129.31,129.31,0,0,1,18.67-23.52Q127.51,0,153.83,0q18.58,0,31.25,16A53.25,53.25,0,0,1,196.6,49.85Q196.6,76,177.19,104q-11.35,16.27-24.52,23.69-6.4,3.45-11.59,3.45a19.54,19.54,0,0,1-9.14-2.05,27.94,27.94,0,0,1-6.9-5c-4.07-4.28-6.09-8.15-6.09-11.6s.87-5.73,2.63-6.83A131.47,131.47,0,0,0,155.31,76q15-18.59,15-35.95T154.81,22.7Z"/><path class="cls-2" d="M320.16,212.56q0,15.13,10.69,15.14a28.53,28.53,0,0,0,12.26-2.31c3.23-1.53,5.4-2.3,6.49-2.3q3.47,0,3.46,3.62,0,14.14-14.81,24.35-15.63,10.68-31.91,5.26-10.69-3.78-15.8-16.29a33,33,0,0,1-2.47-11.68,106.31,106.31,0,0,1,1.65-18.09q-15.3,31.26-38,43.1A41.92,41.92,0,0,1,232.47,258a35.58,35.58,0,0,1-17.69-4.2A38.77,38.77,0,0,1,202,242.17q-10.69-15.46-9.71-38.82,1-29.29,17.28-57.42,15-26.33,37.84-42.94Q270.3,86,290.21,86t32.08,18.27Q333.65,86,342.37,86q9.38,0,14.14,3.46,9.06,6.59,6.42,11.52-41.3,84.56-42.45,105.29A56.53,56.53,0,0,0,320.16,212.56Zm-91.31.66q0,19.74,12.67,19.74,9.69,0,23.85-16.45,20.73-24.18,36.69-65.15a234,234,0,0,0,8.55-25.67q-.66-11.18-9.37-16.45c-2-1.2-4.91-1.81-8.81-1.81s-8.44,1.43-13.65,4.28a65.9,65.9,0,0,0-15.14,11.68A101.25,101.25,0,0,0,250,140.91a139.32,139.32,0,0,0-11.11,22A136,136,0,0,0,228.85,213.22Z"/><path class="cls-2" d="M404.23,229.83q27.63-9.21,51-9.21,15.61,0,24.18,8.72,7.72,7.91,7.73,21.39a7.16,7.16,0,0,1-2,5.18A7,7,0,0,1,479.9,258a15.59,15.59,0,0,1-6.91-1.81q-3.62-1.82-8.39-4-31.1-14-68.44,2.47a55.92,55.92,0,0,1-8.22,3,11.38,11.38,0,0,1-7.73-1.07,34,34,0,0,1-8.07-5.26q-9.37-8.23-6.58-16.37a80.88,80.88,0,0,1,9.13-17.77,188.42,188.42,0,0,1,14.56-19.17q8.24-9.54,17.77-18.75,25.17-23.54,36.36-32.91,25.67-21.87,31.34-27.14a48,48,0,0,0,7.65-8.39q-14.47,6.58-38.17,9a96.08,96.08,0,0,1-10,.65q-16.95,0-24.1-6.08t-7.16-18.27a11.78,11.78,0,0,1,2.14-7.48,6.25,6.25,0,0,1,5-2.72,23.27,23.27,0,0,1,7.56,1.73q4.69,1.73,11.44,3.87,17.6,5.6,30.93,5.59t18.59-1.31q5.27-1.32,9.38-2.8l7.56-3a19.28,19.28,0,0,1,6.91-1.32,9.47,9.47,0,0,1,6.17,2.22,29.63,29.63,0,0,1,5,5.35q4.93,7.08,4.94,13.49t-6.91,15.55a154.41,154.41,0,0,1-17.77,19.25q-10.86,10.11-24,20.81l-26,21.55Q413.6,212.72,404.23,229.83Zm-2.14,4.45c.33-.22.43-.33.33-.33A.29.29,0,0,0,402.09,234.28Z"/><path class="cls-2" d="M520.21,240.36a36.37,36.37,0,0,1-2-12.42,59.28,59.28,0,0,1,2.38-15.63,167.54,167.54,0,0,1,6.17-18q3.78-9.37,8.23-19.25l8.88-19.74q17.11-38,12.67-45.08-2-3.12-7.4-6.25a4.27,4.27,0,0,1-2-4,8.18,8.18,0,0,1,2.39-5.52,21.71,21.71,0,0,1,6.17-4.6A37.66,37.66,0,0,1,571.87,86q8.05,0,12.26,1.73A20.8,20.8,0,0,1,591,92.13q5.41,5.43,5.42,12a58.77,58.77,0,0,1-2.13,14.73q-2.14,8.13-5.6,17.68t-7.57,19.74q-11.34,26.66-15.3,35.21l-6.08,12.67q-5.12,11.36-5.1,16t1.48,6.5q1.47,1.89,5.34,1.89t8.56-3a74.92,74.92,0,0,0,10.12-7.9q5.43-4.93,11.27-11.43t11.43-13.58q14.64-18.09,21.72-31.09,35.54-65.48,37.67-68.44Q667.62,86,673.13,86a33.76,33.76,0,0,1,9.63,1.24,21.42,21.42,0,0,1,7.07,3.53q6.58,4.78,4,10.7t-6.17,16.29q-31.26,90.65-40.55,113t-16.21,35.95a262.37,262.37,0,0,1-16.2,27.39,205.77,205.77,0,0,1-19.83,25.17q-24,25.67-45.07,27.48-8.07.66-12.84-2.31-8.22-4.94-8.22-9.37t7.48-6.17a48.91,48.91,0,0,0,15.47-6.91A113.59,113.59,0,0,0,567.1,310q21.72-20.73,33.73-45.08a344.13,344.13,0,0,0,16.45-40.47l12.83-39.16q-4.77,5.76-10.53,13.49l-11.84,15.79q-15.48,19.59-25.67,27.81Q562.66,258,547.36,258,527,258,520.21,240.36Z"/><path class="cls-2" d="M710.07,187.22l.16-4.77A214.15,214.15,0,0,1,735.07,89.5q21.23-40,53.47-64.66Q820.46.5,850.73.49q23,0,36.36,16,11.35,13.83,11.35,33.89,0,24-17.6,47.38-10.2,13.5-21.72,19.42a21.36,21.36,0,0,1-10.12,3,19.1,19.1,0,0,1-8.63-2,26.52,26.52,0,0,1-6.91-4.94c-4.06-4.28-6.09-8.11-6.09-11.52s.88-5.75,2.63-7.07q27-19.41,36.69-40a35.64,35.64,0,0,0,3.78-15.46q0-16-15.13-16-23.69,0-48.86,25.83Q782.95,72.88,767,108.91q-16.62,37-17.6,68l-.17,6.25q0,37,15.63,48.53a22,22,0,0,0,13.41,4.12,53.28,53.28,0,0,0,14.73-2,79.42,79.42,0,0,0,13.82-5.43q11.18-5.74,28.62-19.9,5.27-4.11,8.72,1.15a16.86,16.86,0,0,1,3,9.87q0,9.38-2.55,12.75a44.47,44.47,0,0,1-8.72,8,78.2,78.2,0,0,1-15.05,8.55Q800.06,258,780.15,258t-32.08-4.86a55.51,55.51,0,0,1-20.56-13.9Q710.07,220.13,710.07,187.22Z"/><path class="cls-2" d="M1012.62,212.56q0,15.13,10.69,15.14a28.53,28.53,0,0,0,12.26-2.31q4.85-2.29,6.5-2.3,3.45,0,3.45,3.62,0,14.14-14.8,24.35-15.63,10.68-31.92,5.26Q988.11,252.54,983,240a32.73,32.73,0,0,1-2.47-11.68,106.26,106.26,0,0,1,1.64-18.09q-15.3,31.26-38,43.1A41.86,41.86,0,0,1,924.93,258a35.58,35.58,0,0,1-17.69-4.2,38.77,38.77,0,0,1-12.75-11.6q-10.69-15.46-9.7-38.82,1-29.29,17.27-57.42Q917,119.6,939.9,103,962.78,86,982.68,86t32.08,18.27Q1026.12,86,1034.83,86q9.38,0,14.15,3.46,9,6.59,6.42,11.52-41.31,84.56-42.45,105.29A56.46,56.46,0,0,0,1012.62,212.56Zm-91.31.66Q921.31,233,934,233q9.71,0,23.85-16.45,20.73-24.18,36.69-65.15a236.22,236.22,0,0,0,8.56-25.67q-.66-11.18-9.38-16.45c-2-1.2-4.91-1.81-8.8-1.81s-8.45,1.43-13.66,4.28a65.86,65.86,0,0,0-15.13,11.68,100.8,100.8,0,0,0-13.66,17.52,140.15,140.15,0,0,0-11.1,22A135.8,135.8,0,0,0,921.31,213.22Z"/><path class="cls-2" d="M1163.81,213.22q4.77,0,4.77,6.41a19.12,19.12,0,0,1-3.29,10.53q-4.44,9.56-17.76,18.1-15.15,9.7-30.44,9.71-26.49,0-33.56-23.69-8.4-28.14,25.17-119.28-18.93-1.65-20.57-6.58a10.38,10.38,0,0,1-.49-3.21,7.55,7.55,0,0,1,1.56-4,23.49,23.49,0,0,1,4-4.44Q1099,92,1104.92,92h13q17.77-41.62,25.34-47.39a13.41,13.41,0,0,1,8.06-2.63,20.72,20.72,0,0,1,7.4,1.15,16.55,16.55,0,0,1,5.27,3.29q5.26,4.95,5.26,11a18.57,18.57,0,0,1-2,7.57l-12.18,26.48h4q10.2,0,16.45-.16l9.38-.17c2.09-.1,4.69-.16,7.82-.16s4.69,1.15,4.69,3.45q0,21.72-51.33,21.72h-1.32l-11.19,29q-18.91,51.33-18.92,71.89,0,5.76,2.63,9t9.88,3.21a34,34,0,0,0,13.16-2.47,57.38,57.38,0,0,0,10.36-5.51q4.44-3,7.65-5.51T1163.81,213.22Z"/></g></g></svg>