<svg xmlns="http://www.w3.org/2000/svg" viewBox="0 0 429.64 103.42"><defs><style>.cls-1,.cls-2,.cls-3{fill:#4f3012;}.cls-1{stroke:#4f3012;stroke-miterlimit:10;stroke-width:0.75px;}.cls-3{font-size:100px;font-family:Courgette-Regular, Courgette;}</style></defs><g id="Layer_2" data-name="Layer 2"><g id="Layer_1-2" data-name="Layer 1"><path class="cls-1" d="M424.13,77.09a34.47,34.47,0,0,0-3.52-2.73l-.2-.15.78-.55.76-.6c.24-.2.47-.41.7-.63l.67-.65c1.23.64,2.43,1.32,3.58,2.06h0s0-.08,0-.1l-.3-.23c-.89-.64-1.81-1.23-2.76-1.78l-.23-.13,0,0a.58.58,0,0,1,.18-.26,14.67,14.67,0,0,0,2.52-4.1,15.16,15.16,0,0,0,1.05-4.07,13.45,13.45,0,0,0-2.61-9.6,1.2,1.2,0,0,1-.23-.56,21.59,21.59,0,0,0-.8-3.63,5.48,5.48,0,0,0-.42-1,3.29,3.29,0,0,0-.86-1l-.1-.09V47.1A17.7,17.7,0,0,0,419.62,37a24.8,24.8,0,0,0-3.2-4.15,27.18,27.18,0,0,0-8.93-6.33,34.21,34.21,0,0,0-6.1-2.06c-1.41-.34-2.84-.6-4.28-.8-1-.14-1.94-.24-2.92-.32a49.36,49.36,0,0,0-5.44-.17c-.92,0-1.84.08-2.75.16s-1.89.21-2.82.36a35.6,35.6,0,0,0-5.66,1.36,36.2,36.2,0,0,0-12.38,7,28.41,28.41,0,0,0-7.36,9.65,25.14,25.14,0,0,0-1.95,5.91,22.08,22.08,0,0,0-.39,2.81,20.67,20.67,0,0,0,0,2.61,17.53,17.53,0,0,0,1.31,6,28.55,28.55,0,0,0,3.82,6.57,29.63,29.63,0,0,0,7,6.55,26,26,0,0,0,7.6,3.49,42.2,42.2,0,0,0,4.43,1c1.1.18,2.21.31,3.32.38a31.79,31.79,0,0,0,3.78,0,26,26,0,0,0,6.6-1.11,19.43,19.43,0,0,0,3.25-1.4,13.68,13.68,0,0,0,1.75-1.17l.15-.12.21.09a10.05,10.05,0,0,0,3.45.85,34,34,0,0,0,3.78,0l.94-.06a.41.41,0,0,1,.32.1,18.71,18.71,0,0,0,2.28,1.15,14.27,14.27,0,0,0,2.79.85,9.23,9.23,0,0,0,4.49-.22,14.36,14.36,0,0,0,3.21-1.41l.34-.19.28.17c1.17.76,2.31,1.57,3.41,2.43a1,1,0,0,0,.17.12.33.33,0,0,0,.1,0ZM385.68,66.83l0,0h0c.12-.21.24-.41.35-.62s.23-.43.34-.64a35,35,0,0,1,6.72.23,2,2,0,0,1,.32.73l-.26-.06-.77-.16a15.2,15.2,0,0,0-2-.2,14.74,14.74,0,0,0-1.88,0,6.86,6.86,0,0,0-2.67.69A.33.33,0,0,1,385.68,66.83ZM395,49.66A8.73,8.73,0,0,0,393.9,51a12.41,12.41,0,0,0-1.74,4.78,22.19,22.19,0,0,0-.25,2.71,20.05,20.05,0,0,0,.06,2.57c0,.4.09.8.14,1.19v.18l-.25,0a31.31,31.31,0,0,0-4.08-.58.78.78,0,0,1-.33-.07l0-.53a10.37,10.37,0,0,0-.17-2.94,9.76,9.76,0,0,0-1.22-3.12,13.89,13.89,0,0,0-3.6-3.92l-.17-.11s-.06,0-.09,0h0c.29.29.59.56.87.86a14.23,14.23,0,0,1,2.5,3.66,10,10,0,0,1,.85,2.76,12.86,12.86,0,0,1,.06,3.16.56.56,0,0,1,0,.15h-.36l-1.11,0c-1,0-1.93,0-2.9,0s-1.81.13-2.71.25l-1.36.22c-.05,0-.09,0-.1.08h0c.94-.1,1.89-.19,2.83-.23s1.9-.06,2.84-.07a17.55,17.55,0,0,1,2.83.14,10,10,0,0,1-.94,3.24l-.78.06c-.53,0-1.07.08-1.6.14-.83.1-1.67.21-2.5.34-.63.09-1.26.23-1.89.35-.05,0-.08,0-.12.07h0a.09.09,0,0,1,0,0c.61-.08,1.21-.18,1.82-.25.8-.1,1.59-.19,2.39-.27s1.46-.11,2.19-.16a.69.69,0,0,1,.32,0c0,.11-.05.19-.09.28a12.54,12.54,0,0,1-1.06,1.75,3,3,0,0,0-.2.29.78.78,0,0,0-.09.21.14.14,0,0,0,.17.18,1.46,1.46,0,0,0,.33-.12,1.69,1.69,0,0,0,.6-.49,1.29,1.29,0,0,1,.59-.42l.29-.13a9.74,9.74,0,0,1,3.63-.55,17.42,17.42,0,0,1,2.16.15,11.13,11.13,0,0,1,1.81.35c.37.11.37.11.57.44a1.74,1.74,0,0,1,.11.18c0,.06.1.11.09.21l-.13.06-.56.17a38.19,38.19,0,0,1-5.7,1.18q-1.53.21-3.06.27a29.39,29.39,0,0,1-3.51-.09,16.89,16.89,0,0,1-3.73-.74,23.2,23.2,0,0,1-8.11-4.57l-.11-.13h0c0,.1.05.16.1.22.35.37.69.76,1.06,1.1a18.33,18.33,0,0,0,7.75,4.33,23.25,23.25,0,0,0,5,.76,29.36,29.36,0,0,0,3.51,0,27.41,27.41,0,0,0,3.61-.46,21.42,21.42,0,0,0,4.34-1.29l.17,0,.5.66.52.67.52.64.55.64c.17.21.37.4.54.64a2.32,2.32,0,0,1-.25.21c-.35.25-.69.52-1.05.74a16.38,16.38,0,0,1-4.2,1.78,22.33,22.33,0,0,1-3.45.65,28.77,28.77,0,0,1-3.48.2c-1,0-1.95,0-2.92-.14s-1.71-.18-2.56-.32a40.94,40.94,0,0,1-4.09-.92,24.21,24.21,0,0,1-7.06-3.2,28,28,0,0,1-9.15-10A22.06,22.06,0,0,1,357.54,57a15.87,15.87,0,0,1-.58-2.72,19.58,19.58,0,0,1-.14-2.16c0-.6.05-1.19.09-1.79a18.69,18.69,0,0,1,.32-2.35,25.11,25.11,0,0,1,2.58-7.07,27.67,27.67,0,0,1,6.93-8.29A35,35,0,0,1,376.33,27a36.9,36.9,0,0,1,10.06-2.27c1.15-.1,2.3-.14,3.45-.14a41.11,41.11,0,0,1,4.3.18c.82.08,1.64.16,2.45.26,1.32.17,2.63.4,3.92.69a34.56,34.56,0,0,1,6,1.94,26,26,0,0,1,11.2,9.11,17.24,17.24,0,0,1,2.64,5.84,16.37,16.37,0,0,1,.43,3c0,.45,0,.9,0,1.35a.3.3,0,0,1-.07.25l-.84.1c-.28,0-.56.09-.83.15s-.57.13-.86.21l-.81.24-.8.28-.79.3c-.27.11-.53.22-.78.34s-.53.25-.79.39l-.73.43c-.24.15-.47.31-.7.47l-.08-.07a6.38,6.38,0,0,0-2-1.62,10.81,10.81,0,0,0-3.93-1.19,4.15,4.15,0,0,0-1.68.14H405c0-.06-.05-.11-.08-.16a5.92,5.92,0,0,0-.89-1.38A9.14,9.14,0,0,0,399.67,43,10.81,10.81,0,0,0,397,42.6a10,10,0,0,0-1.55.06c-.35,0-.27,0-.49.3a6.27,6.27,0,0,0-.81,1.74,5.29,5.29,0,0,0-.23,1.85,12.2,12.2,0,0,0,.64,2.92,1,1,0,0,0,.09.17.77.77,0,0,0,0-.18,17.68,17.68,0,0,1-.23-3,5.18,5.18,0,0,1,.13-1.11,3.49,3.49,0,0,1,.85-1.61.93.93,0,0,1,.56-.29,7.47,7.47,0,0,1,2.36,0,9.19,9.19,0,0,1,2.44.8,9.45,9.45,0,0,1,2.63,1.84,6.76,6.76,0,0,1,1.86,3.36c0,.19.07.38.11.64a3.14,3.14,0,0,0,.07-1,5.29,5.29,0,0,0-.29-1.31c0-.06-.07-.12,0-.2a3.87,3.87,0,0,1,.9,0,13.31,13.31,0,0,1,3.79.87A9.71,9.71,0,0,1,412.46,50a1.11,1.11,0,0,1,.22.21.13.13,0,0,0,0,0l-.16.13a14.94,14.94,0,0,0-1.39,1.25,13.29,13.29,0,0,0-1.66,2.08s-.09.09,0,.17l.17-.15c.48-.44,1-.89,1.46-1.32a25.51,25.51,0,0,1,3.07-2.29,12.51,12.51,0,0,1,1.74-.91,13.76,13.76,0,0,1,4.4-.91,3.63,3.63,0,0,1,.87,0,.72.72,0,0,1,.4.17,2.18,2.18,0,0,1,.42.53,4.7,4.7,0,0,1,.35.83,20.64,20.64,0,0,1,.64,2.8,7.87,7.87,0,0,1,.12,1,6.14,6.14,0,0,1-.7,3.25,12.58,12.58,0,0,1-1.47,2.15c-.05.07-.11.13-.16.21s0,.07,0,.1h0a5.56,5.56,0,0,0,1.11-1,8.41,8.41,0,0,0,1.74-3.51c0-.07,0-.16.08-.2s0,0,0,0l.18.23a12,12,0,0,1,2,6.31,13.19,13.19,0,0,1-.26,2.94,13.48,13.48,0,0,1-3.33,6.48l-.18.18a42.62,42.62,0,0,0-4.6-2,.61.61,0,0,1,.24-.24,18,18,0,0,0,2.92-3,11.89,11.89,0,0,0,1.62-2.78,6.59,6.59,0,0,0,.5-3,3.92,3.92,0,0,0-.29-1.25,1.37,1.37,0,0,0-.1-.14c0,.19,0,.33,0,.48a8.1,8.1,0,0,1-.44,3,11.41,11.41,0,0,1-2,3.55,16.84,16.84,0,0,1-3.07,2.83c-.35.25-.24.22-.63.09a28.32,28.32,0,0,0-6-1.28,20.83,20.83,0,0,0-3.16,0l-.29,0-.21.08a.12.12,0,0,0-.09.14.15.15,0,0,0,.09.1,1.54,1.54,0,0,0,.37.09l.52,0c.54,0,1.08,0,1.62,0a25.33,25.33,0,0,1,3,.27,24.13,24.13,0,0,1,3.85.88l.21.09s0,0,0,.06l-.19.13a24.72,24.72,0,0,1-2.29,1.32c-.34.18-.25.16-.57,0A25.42,25.42,0,0,0,410,69.22a16.66,16.66,0,0,0-2.79-.5,2,2,0,0,0-.35,0,.15.15,0,0,0-.11,0,.12.12,0,0,0,0,.1.18.18,0,0,0,.1.09,2.54,2.54,0,0,0,.45.13c.77.1,1.53.23,2.28.4a25.25,25.25,0,0,1,3.31,1l.11,0s.08,0,.06.09l-.12.06a22.84,22.84,0,0,1-5,1.73,11.07,11.07,0,0,1-2,.27l-1.67,0c-.72,0-1.44,0-2.16,0a8.83,8.83,0,0,1-3-.79,1.73,1.73,0,0,1-.49-.32c-.23-.21-.46-.42-.68-.64a37,37,0,0,1-2.81-3.19,10.36,10.36,0,0,1-.95-1.48L394,66l.29,0,1.26.26c.76.17,1.51.38,2.26.61a3.86,3.86,0,0,0,.49.1.18.18,0,0,0,.2-.07.16.16,0,0,0-.11-.16l-.35-.14a21.34,21.34,0,0,0-3.44-.85l-.76-.12a.68.68,0,0,0-.05-.07,12.46,12.46,0,0,1-.78-2.3.86.86,0,0,1,0-.15l1.08.33a24.47,24.47,0,0,1,4.13,1.8,2.93,2.93,0,0,0,.4.19.92.92,0,0,0,.29,0c.08,0,.12-.09.08-.17a.49.49,0,0,0-.11-.14,1.79,1.79,0,0,0-.28-.2c-.43-.24-.85-.48-1.29-.7a20.48,20.48,0,0,0-4.1-1.48l-.33-.1-.06-.21a19.33,19.33,0,0,1-.33-3.64c0-.74,0-1.48.09-2.22a10.9,10.9,0,0,1,.27-1.89,14.63,14.63,0,0,1,2-4.7c0-.08.1-.15.14-.23a.4.4,0,0,0,0-.11Zm13.22,23.43a2.18,2.18,0,0,1,.27-.07,23,23,0,0,0,5.4-1.9L414,71a.2.2,0,0,1,.2,0l.16.07a43.55,43.55,0,0,1,4.26,2.28s.09,0,.08.12l-.14.08a12.43,12.43,0,0,1-2.26,1,7.56,7.56,0,0,1-3.5.28,13.26,13.26,0,0,1-4.52-1.63S408.22,73.13,408.17,73.09Zm-21.69-7.76c.12-.3.22-.56.31-.81s.17-.5.25-.75.13-.53.2-.8.08-.53.17-.78a22.68,22.68,0,0,1,4.81.72,14.71,14.71,0,0,0,.77,2.6l-1.31-.12q-.65,0-1.29-.06l-1.29,0h-1.29Zm35.42,5.76A13.75,13.75,0,0,1,419,73.31l-.26-.15-1.29-.75c-.92-.53-1.86-1-2.83-1.47-.06,0-.16,0-.17-.13l1.38-.83c.45-.29.89-.6,1.34-.91,1.56.57,3.08,1.21,4.58,1.93Z"/><path class="cls-1" d="M427.12,73.93l-.09-.06a.11.11,0,0,0-.13,0h0c.07,0,.13.1.21.08Z"/><path class="cls-1" d="M427.11,73.92h0Z"/><path class="cls-1" d="M402,65.73l.8-.4a4.53,4.53,0,0,1,.8-.3l1-.29a3,3,0,0,0,.49-.2,1.26,1.26,0,0,0,.31-.22.45.45,0,0,0,0-.69,4.32,4.32,0,0,0-.42-.27,6.54,6.54,0,0,0-1.62-.59,20.42,20.42,0,0,0-2.07-.39,1.55,1.55,0,0,0-.43,0,.45.45,0,0,0-.43.45,1.82,1.82,0,0,0,0,.52,2.81,2.81,0,0,0,.28.83c.1.22.22.44.33.65s.08.18.13.27a1.39,1.39,0,0,1,.15.73c0,.47,0,.94,0,1.4a3.93,3.93,0,0,1-.18,1.13,2,2,0,0,1-.62.94,2.89,2.89,0,0,1-1.69.72,2.15,2.15,0,0,1-1.06-.21c-.13,0-.26-.12-.39-.18s0,.05,0,.06a2.1,2.1,0,0,0,1.66.79,1.81,1.81,0,0,0,.82-.2c.3-.16.59-.35.88-.52.13-.07.25-.15.39-.21a.64.64,0,0,1,.84.18c.11.13.2.26.3.4a7.46,7.46,0,0,0,.78,1,4.17,4.17,0,0,0,1,.77,2.9,2.9,0,0,0,2.21.29,1.8,1.8,0,0,0,.38-.16.79.79,0,0,0,.18-.14s.08-.1,0-.16-.1,0-.15,0l-.11,0a1,1,0,0,1-.6.12,6,6,0,0,1-.84-.08,2.46,2.46,0,0,1-1.22-.6,4.53,4.53,0,0,1-.72-.8l-.79-1.17a3.34,3.34,0,0,1-.47-1.5,7.34,7.34,0,0,1,.07-1.75A1.93,1.93,0,0,1,402,65.73Z"/><path class="cls-2" d="M397.09,44.19l-.31.47a7.1,7.1,0,0,0-.82,2.18,5,5,0,0,0-.12,1.28,3.88,3.88,0,0,0,.25,1.11s0,0,0,0,0-.06,0-.09c0-.39,0-.78,0-1.17a5.21,5.21,0,0,1,.55-2.32c.16-.3.31-.6.48-.9a1.13,1.13,0,0,1,.13-.2,6.28,6.28,0,0,1,1.94,1,8.93,8.93,0,0,1,2.69,3.31c.16.35.32.71.49,1.06a5.19,5.19,0,0,0,.31.5.93.93,0,0,0,.23.21.17.17,0,0,0,.24,0,.59.59,0,0,0,.13-.19,1.92,1.92,0,0,0,.09-.4,2.47,2.47,0,0,0-.22-1.17,4.09,4.09,0,0,0-.6-1A10.75,10.75,0,0,0,400,45.42a9.94,9.94,0,0,0-1.55-.88,5.28,5.28,0,0,0-.95-.31Z"/><path class="cls-2" d="M410.47,61.43a.15.15,0,0,1,.19,0l.44.23a7.61,7.61,0,0,1,2.06,1.9c.06.07.09.17.2.21a1.33,1.33,0,0,0-.12-.4,4.42,4.42,0,0,0-1-1.46,5.33,5.33,0,0,0-2.61-1.42,2.77,2.77,0,0,0-1.28,0,1.86,1.86,0,0,0-.5.23.56.56,0,0,0,.13.07,8.82,8.82,0,0,1,1.63.73,6.82,6.82,0,0,1,2.65,2.78c.15.28.28.58.41.87,0,.06.06.12.11.24a.72.72,0,0,0,0-.23,4,4,0,0,0-.44-1.66,5.59,5.59,0,0,0-1.83-2.09l0,0s0-.05,0,0Z"/><path class="cls-2" d="M396.83,61.15a8.2,8.2,0,0,1,3-1.81,7.73,7.73,0,0,1,3.45-.24.53.53,0,0,0-.17-.28,2.36,2.36,0,0,0-.87-.59A3.76,3.76,0,0,0,401,58a5.18,5.18,0,0,0-2.57.46,4,4,0,0,0-1.16.78,1.21,1.21,0,0,0-.21.24,1.22,1.22,0,0,0,.37-.16l.37-.17.41-.17.39-.13.39-.11.4-.1.43-.07.41,0a1.34,1.34,0,0,1,.4,0c0,.09-.07.08-.11.09a5.78,5.78,0,0,0-1.71.59,4.66,4.66,0,0,0-1.54,1.29A2.46,2.46,0,0,0,396.83,61.15Z"/><path class="cls-2" d="M412.77,54.39l1.42-.37a16,16,0,0,0,3.37-1.39c1.13-.63,2.23-1.29,3.31-2l.25-.16a2.36,2.36,0,0,1,.51.92c.13.33.24.67.35,1a4.52,4.52,0,0,1,.17,1c0,.35,0,.7,0,1.07a1,1,0,0,0,.07-.21,6,6,0,0,0,.14-1.69,4.86,4.86,0,0,0-.21-1.06,8.21,8.21,0,0,0-.85-1.92,1.86,1.86,0,0,0-.14-.2l-.09.06a15.39,15.39,0,0,1-2.94,2.27A31.13,31.13,0,0,1,413.56,54l-.71.28a.09.09,0,0,0-.07.11Z"/><path class="cls-1" d="M377.94,62.3l-.22,0c.08.07.15,0,.21,0Z"/><path class="cls-1" d="M378.6,66.34h0Z"/><path class="cls-1" d="M412.78,54.4l-.1,0v0h.11Z"/><path class="cls-1" d="M395,49.6h0Z"/><path class="cls-1" d="M394.94,49.65l.09,0h0l-.09,0Z"/><path class="cls-1" d="M382.18,51.07h0Z"/><path class="cls-1" d="M382.23,51.17l-.05-.1h0l.06.09Z"/><path class="cls-1" d="M420.73,59.38l0,0,0,0Z"/><path class="cls-1" d="M369.37,64.12v0h0Z"/><text class="cls-3" transform="translate(2.05 76.07)">LazyCat</text></g></g></svg>